<svg version="1.1" id="Layer_1" xmlns="http://www.w3.org/2000/svg" x="0px" y="0px"
	 width="100%" viewBox="0 0 640 640" enable-background="new 0 0 640 640" xml:space="preserve">
<path fill="none" opacity="1.000000" stroke="none"
	d="
M641.000000,354.000000 
	C641.000000,449.650665 641.000000,545.301331 641.000000,640.976013 
	C427.718323,640.976013 214.436661,640.976013 1.077493,640.976013 
	C1.077493,427.754028 1.077493,214.508011 1.077493,1.130994 
	C214.210251,1.130994 427.420624,1.130994 641.000000,1.130994 
	C641.000000,114.024635 641.000000,227.049667 640.594727,340.538727 
	C639.853516,339.740082 639.380249,338.496582 639.201233,337.212067 
	C632.133850,286.491394 572.520813,258.096985 527.657288,290.125336 
	C511.713867,301.507385 501.889313,317.203705 498.878357,336.813873 
	C491.781769,336.813873 484.986237,336.813873 478.439026,336.813873 
	C471.785736,306.602661 454.396240,286.719147 424.365662,278.706818 
	C421.060547,277.825012 420.877563,275.981354 420.885986,273.276367 
	C420.950409,252.613144 420.915527,231.949615 420.935028,211.286194 
	C420.936218,210.011551 421.136658,208.737091 421.260284,207.274246 
	C439.683258,207.274246 457.784058,207.274246 475.859955,207.274246 
	C485.685883,252.852066 527.390198,270.575989 559.090759,264.793213 
	C591.848755,258.817566 616.465210,229.958282 617.134399,196.067978 
	C617.806702,162.019821 593.948059,131.950562 560.498291,125.267021 
	C544.171997,122.004883 528.220886,123.927307 513.489136,131.945877 
	C493.178986,143.000809 480.594666,160.063217 476.171661,182.593887 
	C457.573212,182.593887 439.469360,182.593887 420.920807,182.593887 
	C420.920807,172.018707 421.075134,161.721832 420.834778,151.434189 
	C420.753632,147.961517 421.698120,146.582062 425.227051,145.823044 
	C441.341888,142.357056 454.256195,133.450699 464.384827,120.753639 
	C482.184357,98.440369 484.679535,66.236267 470.929871,42.437263 
	C455.685364,16.050901 427.745056,2.384850 398.033325,6.782358 
	C365.427795,11.608166 339.711975,39.964046 337.948944,71.956192 
	C335.664398,113.411407 365.647766,139.947983 391.908356,145.751907 
	C395.503723,146.546539 396.712708,147.706345 396.698120,151.515717 
	C396.543610,191.842163 396.602386,232.169418 396.602386,272.496460 
	C396.602386,274.118958 396.602356,275.741486 396.602356,277.291016 
	C393.614838,278.049255 391.189484,278.612854 388.793182,279.280884 
	C357.651550,287.962250 336.529510,316.382599 337.055695,348.872467 
	C337.574890,380.930481 359.660522,408.901917 390.773865,416.398560 
	C394.899628,417.392670 395.910492,418.902344 395.883057,422.970215 
	C395.484100,482.122772 395.265381,541.276550 395.016235,600.430054 
	C394.980682,608.876526 395.011322,617.323242 395.011322,625.707642 
	C403.363495,625.707642 411.234985,625.707642 419.885101,625.707642 
	C419.885101,584.592834 419.885101,543.866516 419.885101,503.208313 
	C426.315704,503.208313 431.950989,503.208313 437.543640,503.208313 
	C444.451752,540.731445 481.471100,567.006226 520.777466,559.947449 
	C549.055847,554.869080 578.138855,528.750488 578.704407,491.083740 
	C579.209106,457.466644 555.262329,427.243256 521.687134,420.485718 
	C505.328644,417.193298 489.350311,419.207428 474.676941,427.292419 
	C454.324585,438.506561 441.704498,455.731049 437.539459,478.553223 
	C431.417175,478.553223 425.821533,478.553223 420.170593,478.553223 
	C420.170593,458.175964 420.170593,438.077271 420.170593,418.147675 
	C420.711884,417.792480 420.963104,417.518066 421.262726,417.446564 
	C450.422699,410.486420 469.202240,392.789215 477.136841,363.712799 
	C477.429291,362.641052 479.305817,361.351654 480.502747,361.289368 
	C485.654694,361.021179 490.834717,361.324738 495.991852,361.112274 
	C498.772858,360.997681 499.647217,362.140656 500.232727,364.682007 
	C503.726501,379.847260 511.894470,392.203156 523.800171,402.016998 
	C545.270996,419.715393 569.747437,423.568451 595.080078,413.469757 
	C619.888794,403.580048 635.455322,384.796295 639.070251,357.415100 
	C639.229004,356.212769 640.335144,355.135529 641.000000,354.000000 
M105.036034,427.460266 
	C80.714272,439.167542 65.594269,457.882202 62.816814,485.097168 
	C60.029079,512.412903 70.211533,534.585144 92.505997,550.478577 
	C114.387505,566.077515 138.419586,567.981140 162.661514,557.022217 
	C183.323425,547.681641 196.758301,531.414856 202.317612,509.055695 
	C202.722290,507.428223 204.114151,504.951385 205.286514,504.806427 
	C209.482437,504.287659 213.781494,504.603271 218.373108,504.603271 
	C218.373108,545.491760 218.373108,585.719177 218.373108,625.812012 
	C226.496124,625.812012 234.266479,625.812012 242.872406,625.812012 
	C242.872406,556.292358 242.872406,487.057190 242.872406,417.990814 
	C277.536621,411.265686 300.852173,381.699432 301.655670,352.554260 
	C302.780945,311.739502 281.173218,287.978790 243.186020,276.869507 
	C243.186020,234.893326 243.216721,192.904572 243.120224,150.916122 
	C243.113449,147.968018 244.521851,147.427750 246.878326,146.845551 
	C277.339081,139.319778 297.915863,115.894371 301.540161,84.756966 
	C307.099182,36.998028 261.333374,-3.215769 214.881897,8.611502 
	C186.939056,15.726188 165.051041,38.676315 161.154541,64.945984 
	C156.523758,96.166039 168.781906,123.135208 195.510666,138.875610 
	C202.569183,143.032318 210.646545,145.458878 218.573944,148.814468 
	C218.573944,160.078964 218.573944,172.126190 218.573944,184.381226 
	C201.066315,184.381226 183.905884,184.315720 166.746902,184.444992 
	C163.850220,184.466827 163.264786,183.121414 162.657166,180.719147 
	C153.227859,143.440536 119.774994,121.076096 82.037666,126.715157 
	C50.819027,131.380142 25.634354,158.209061 22.932867,189.678757 
	C20.094847,222.738968 39.505009,253.332245 69.921593,263.739929 
	C109.920387,277.426361 152.685913,254.100311 162.499924,213.070251 
	C163.330002,209.599838 164.549789,208.435928 168.085709,208.594299 
	C174.572632,208.884827 181.081879,208.677063 187.581818,208.677063 
	C197.868210,208.677063 208.154602,208.677063 218.678467,208.677063 
	C218.678467,231.924637 218.678467,254.682129 218.678467,277.389893 
	C187.532822,284.871094 168.220642,303.967682 160.779617,335.078064 
	C154.943176,335.078064 149.160034,335.078064 143.235901,335.078064 
	C142.832504,333.661652 142.428223,332.413147 142.121750,331.141113 
	C133.131805,293.826569 95.998940,270.211609 58.619995,278.046295 
	C20.644594,286.006073 -4.039962,323.343445 3.433915,361.519745 
	C9.358130,391.780426 35.640678,415.559814 66.046211,418.168793 
	C98.671783,420.968262 128.385956,402.552063 139.581512,372.678314 
	C141.240158,368.252441 142.119690,362.040649 145.395477,360.110840 
	C149.094193,357.931885 155.092987,359.655060 160.091370,359.695435 
	C160.232513,359.696564 160.372345,359.858887 160.512787,359.946045 
	C160.639954,360.047943 160.829163,360.124481 160.883026,360.256317 
	C161.071487,360.717499 161.249146,361.189026 161.367569,361.672089 
	C168.579041,391.092804 186.855515,409.517456 216.172623,417.173950 
	C217.356354,417.483093 218.723602,419.932068 218.744476,421.401978 
	C218.912415,433.231659 218.767517,445.065643 218.738419,456.898346 
	C218.719666,464.529266 218.734909,472.160278 218.734909,480.027405 
	C213.224747,480.027405 208.308258,480.027405 203.617020,480.027405 
	C201.789780,474.526642 200.482803,469.148376 198.272964,464.170929 
	C182.399780,428.418060 143.630478,412.967499 105.036034,427.460266 
M306.929657,521.500000 
	C306.929657,555.594482 306.929657,589.689026 306.929657,623.745850 
	C315.302765,623.745850 323.048157,623.745850 330.815430,623.745850 
	C330.815430,421.423370 330.815430,219.401642 330.815430,17.349045 
	C322.713318,17.349045 314.976135,17.349045 306.929657,17.349045 
	C306.929657,185.264481 306.929657,352.882233 306.929657,521.500000 
z"/>
<path fill="#040404" opacity="1.000000" stroke="none"
	d="
M641.000000,353.536804 
	C640.335144,355.135529 639.229004,356.212769 639.070251,357.415100 
	C635.455322,384.796295 619.888794,403.580048 595.080078,413.469757 
	C569.747437,423.568451 545.270996,419.715393 523.800171,402.016998 
	C511.894470,392.203156 503.726501,379.847260 500.232727,364.682007 
	C499.647217,362.140656 498.772858,360.997681 495.991852,361.112274 
	C490.834717,361.324738 485.654694,361.021179 480.502747,361.289368 
	C479.305817,361.351654 477.429291,362.641052 477.136841,363.712799 
	C469.202240,392.789215 450.422699,410.486420 421.262726,417.446564 
	C420.963104,417.518066 420.711884,417.792480 420.170593,418.147675 
	C420.170593,438.077271 420.170593,458.175964 420.170593,478.553223 
	C425.821533,478.553223 431.417175,478.553223 437.539459,478.553223 
	C441.704498,455.731049 454.324585,438.506561 474.676941,427.292419 
	C489.350311,419.207428 505.328644,417.193298 521.687134,420.485718 
	C555.262329,427.243256 579.209106,457.466644 578.704407,491.083740 
	C578.138855,528.750488 549.055847,554.869080 520.777466,559.947449 
	C481.471100,567.006226 444.451752,540.731445 437.543640,503.208313 
	C431.950989,503.208313 426.315704,503.208313 419.885101,503.208313 
	C419.885101,543.866516 419.885101,584.592834 419.885101,625.707642 
	C411.234985,625.707642 403.363495,625.707642 395.011322,625.707642 
	C395.011322,617.323242 394.980682,608.876526 395.016235,600.430054 
	C395.265381,541.276550 395.484100,482.122772 395.883057,422.970215 
	C395.910492,418.902344 394.899628,417.392670 390.773865,416.398560 
	C359.660522,408.901917 337.574890,380.930481 337.055695,348.872467 
	C336.529510,316.382599 357.651550,287.962250 388.793182,279.280884 
	C391.189484,278.612854 393.614838,278.049255 396.602356,277.291016 
	C396.602356,275.741486 396.602386,274.118958 396.602386,272.496460 
	C396.602386,232.169418 396.543610,191.842163 396.698120,151.515717 
	C396.712708,147.706345 395.503723,146.546539 391.908356,145.751907 
	C365.647766,139.947983 335.664398,113.411407 337.948944,71.956192 
	C339.711975,39.964046 365.427795,11.608166 398.033325,6.782358 
	C427.745056,2.384850 455.685364,16.050901 470.929871,42.437263 
	C484.679535,66.236267 482.184357,98.440369 464.384827,120.753639 
	C454.256195,133.450699 441.341888,142.357056 425.227051,145.823044 
	C421.698120,146.582062 420.753632,147.961517 420.834778,151.434189 
	C421.075134,161.721832 420.920807,172.018707 420.920807,182.593887 
	C439.469360,182.593887 457.573212,182.593887 476.171661,182.593887 
	C480.594666,160.063217 493.178986,143.000809 513.489136,131.945877 
	C528.220886,123.927307 544.171997,122.004883 560.498291,125.267021 
	C593.948059,131.950562 617.806702,162.019821 617.134399,196.067978 
	C616.465210,229.958282 591.848755,258.817566 559.090759,264.793213 
	C527.390198,270.575989 485.685883,252.852066 475.859955,207.274246 
	C457.784058,207.274246 439.683258,207.274246 421.260284,207.274246 
	C421.136658,208.737091 420.936218,210.011551 420.935028,211.286194 
	C420.915527,231.949615 420.950409,252.613144 420.885986,273.276367 
	C420.877563,275.981354 421.060547,277.825012 424.365662,278.706818 
	C454.396240,286.719147 471.785736,306.602661 478.439026,336.813873 
	C484.986237,336.813873 491.781769,336.813873 498.878357,336.813873 
	C501.889313,317.203705 511.713867,301.507385 527.657288,290.125336 
	C572.520813,258.096985 632.133850,286.491394 639.201233,337.212067 
	C639.380249,338.496582 639.853516,339.740082 640.594727,341.001373 
	C641.000000,345.024536 641.000000,349.049103 641.000000,353.536804 
M507.964752,168.521194 
	C500.239929,179.354355 498.287079,191.559143 500.854767,204.223038 
	C504.556671,222.481033 516.048462,234.685822 533.757385,239.527191 
	C552.893860,244.758820 569.841003,239.512634 582.518982,223.852264 
	C594.402161,209.173721 596.202393,192.400604 588.480835,175.499756 
	C573.695862,143.138489 529.751587,138.729965 507.964752,168.521194 
M433.159210,386.745422 
	C447.899963,376.352020 455.367371,362.375275 454.138000,344.124390 
	C452.972351,326.818329 444.167511,314.136841 429.167847,306.412201 
	C413.560272,298.374420 397.445801,299.009521 382.645264,308.785583 
	C360.864960,323.171906 354.925354,351.111328 368.524902,372.405060 
	C382.406128,394.139801 409.898041,400.452057 433.159210,386.745422 
M527.300110,326.951782 
	C518.003601,347.718079 522.657349,369.180878 539.551575,383.455200 
	C554.837158,396.370300 578.040283,397.725128 594.443115,386.660339 
	C612.588013,374.420349 620.300598,352.696228 612.951477,332.307281 
	C606.754822,315.115631 594.239380,304.426575 576.052063,301.903381 
	C554.635376,298.932098 538.569885,307.804474 527.300110,326.951782 
M535.635498,527.193054 
	C553.515259,513.037415 559.211121,490.362823 549.898254,470.414398 
	C540.993286,451.339630 519.030151,440.239136 498.522644,444.448395 
	C480.309692,448.186676 465.129395,463.489929 462.020813,481.245789 
	C458.578827,500.905945 466.719452,519.411011 483.383942,529.807922 
	C499.050903,539.582458 519.732666,538.715881 535.635498,527.193054 
M398.413452,31.543118 
	C373.319733,38.432007 359.496002,59.155788 362.926361,84.581650 
	C365.614471,104.506218 385.613312,124.766037 410.789429,123.207855 
	C428.710236,122.098717 441.917084,113.645767 449.991241,98.133995 
	C458.299286,82.172806 457.491516,65.797318 447.180664,50.846970 
	C435.634521,34.105572 419.060028,28.380987 398.413452,31.543118 
z"/>
<path fill="#040404" opacity="1.000000" stroke="none" 
	d="
M105.378098,427.286377 
	C143.630478,412.967499 182.399780,428.418060 198.272964,464.170929 
	C200.482803,469.148376 201.789780,474.526642 203.617020,480.027405 
	C208.308258,480.027405 213.224747,480.027405 218.734909,480.027405 
	C218.734909,472.160278 218.719666,464.529266 218.738419,456.898346 
	C218.767517,445.065643 218.912415,433.231659 218.744476,421.401978 
	C218.723602,419.932068 217.356354,417.483093 216.172623,417.173950 
	C186.855515,409.517456 168.579041,391.092804 161.367569,361.672089 
	C161.249146,361.189026 161.071487,360.717499 160.883026,360.256317 
	C160.829163,360.124481 160.639954,360.047943 160.512787,359.946045 
	C160.372345,359.858887 160.232513,359.696564 160.091370,359.695435 
	C155.092987,359.655060 149.094193,357.931885 145.395477,360.110840 
	C142.119690,362.040649 141.240158,368.252441 139.581512,372.678314 
	C128.385956,402.552063 98.671783,420.968262 66.046211,418.168793 
	C35.640678,415.559814 9.358130,391.780426 3.433915,361.519745 
	C-4.039962,323.343445 20.644594,286.006073 58.619995,278.046295 
	C95.998940,270.211609 133.131805,293.826569 142.121750,331.141113 
	C142.428223,332.413147 142.832504,333.661652 143.235901,335.078064 
	C149.160034,335.078064 154.943176,335.078064 160.779617,335.078064 
	C168.220642,303.967682 187.532822,284.871094 218.678467,277.389893 
	C218.678467,254.682129 218.678467,231.924637 218.678467,208.677063 
	C208.154602,208.677063 197.868210,208.677063 187.581818,208.677063 
	C181.081879,208.677063 174.572632,208.884827 168.085709,208.594299 
	C164.549789,208.435928 163.330002,209.599838 162.499924,213.070251 
	C152.685913,254.100311 109.920387,277.426361 69.921593,263.739929 
	C39.505009,253.332245 20.094847,222.738968 22.932867,189.678757 
	C25.634354,158.209061 50.819027,131.380142 82.037666,126.715157 
	C119.774994,121.076096 153.227859,143.440536 162.657166,180.719147 
	C163.264786,183.121414 163.850220,184.466827 166.746902,184.444992 
	C183.905884,184.315720 201.066315,184.381226 218.573944,184.381226 
	C218.573944,172.126190 218.573944,160.078964 218.573944,148.814468 
	C210.646545,145.458878 202.569183,143.032318 195.510666,138.875610 
	C168.781906,123.135208 156.523758,96.166039 161.154541,64.945984 
	C165.051041,38.676315 186.939056,15.726188 214.881897,8.611502 
	C261.333374,-3.215769 307.099182,36.998028 301.540161,84.756966 
	C297.915863,115.894371 277.339081,139.319778 246.878326,146.845551 
	C244.521851,147.427750 243.113449,147.968018 243.120224,150.916122 
	C243.216721,192.904572 243.186020,234.893326 243.186020,276.869507 
	C281.173218,287.978790 302.780945,311.739502 301.655670,352.554260 
	C300.852173,381.699432 277.536621,411.265686 242.872406,417.990814 
	C242.872406,487.057190 242.872406,556.292358 242.872406,625.812012 
	C234.266479,625.812012 226.496124,625.812012 218.373108,625.812012 
	C218.373108,585.719177 218.373108,545.491760 218.373108,504.603271 
	C213.781494,504.603271 209.482437,504.287659 205.286514,504.806427 
	C204.114151,504.951385 202.722290,507.428223 202.317612,509.055695 
	C196.758301,531.414856 183.323425,547.681641 162.661514,557.022217 
	C138.419586,567.981140 114.387505,566.077515 92.505997,550.478577 
	C70.211533,534.585144 60.029079,512.412903 62.816814,485.097168 
	C65.594269,457.882202 80.714272,439.167542 105.378098,427.286377 
M61.531086,163.017883 
	C61.056416,163.484451 60.565113,163.935394 60.109474,164.419876 
	C44.969421,180.518036 42.724918,204.496582 54.684196,222.336990 
	C66.776794,240.376236 89.522514,247.838760 109.662567,240.374496 
	C130.264999,232.738861 142.740143,212.055466 139.480545,189.918442 
	C136.922806,172.548035 127.081360,160.187958 110.827538,153.799088 
	C93.054428,146.813019 76.577591,149.914902 61.531086,163.017883 
M158.261047,531.863159 
	C159.595016,530.869629 160.963791,529.919189 162.257736,528.876038 
	C182.628937,512.452454 185.646408,482.839691 168.986755,462.950562 
	C152.264435,442.986633 122.717209,440.544189 102.923500,457.489563 
	C84.924271,472.898682 81.386452,499.694397 94.817169,518.888123 
	C109.220993,539.472595 135.428925,545.040039 158.261047,531.863159 
M187.439575,61.141636 
	C186.506683,66.352470 184.883347,71.547531 184.763901,76.776947 
	C184.316071,96.383080 193.516602,110.891998 210.736893,119.361176 
	C227.605515,127.657410 244.472702,126.019646 259.522614,114.263168 
	C274.749786,102.368210 280.110107,86.349144 276.297180,67.660263 
	C272.397461,48.546059 255.554245,33.429333 237.526382,31.797573 
	C214.493835,29.712824 196.569870,40.030144 187.439575,61.141636 
M47.281712,386.300415 
	C62.632832,395.984039 78.732079,397.160980 94.675278,388.692657 
	C110.354301,380.364624 119.029770,366.882904 119.406662,348.761780 
	C119.805511,329.584808 111.161041,315.116760 94.448540,306.502472 
	C77.573654,297.804535 60.637573,299.313660 45.066502,310.685852 
	C20.598307,328.556000 19.702806,367.075348 47.281712,386.300415 
M267.274933,376.735870 
	C276.359650,365.727325 279.248688,352.845764 276.676697,339.233185 
	C273.036560,319.967346 261.067383,307.320435 242.066940,302.675995 
	C223.730789,298.193970 207.631149,303.439850 195.388992,317.983887 
	C182.946228,332.766205 180.929214,349.828918 188.894531,367.052490 
	C203.617767,398.888824 245.209839,403.300903 267.274933,376.735870 
z"/>
<path fill="#010101" opacity="1.000000" stroke="none" 
	d="
M306.929657,521.000000 
	C306.929657,352.882233 306.929657,185.264481 306.929657,17.349045 
	C314.976135,17.349045 322.713318,17.349045 330.815430,17.349045 
	C330.815430,219.401642 330.815430,421.423370 330.815430,623.745850 
	C323.048157,623.745850 315.302765,623.745850 306.929657,623.745850 
	C306.929657,589.689026 306.929657,555.594482 306.929657,521.000000 
z"/>
<path fill="none" opacity="1.000000" stroke="none" 
	d="
M508.170044,168.226135 
	C529.751587,138.729965 573.695862,143.138489 588.480835,175.499756 
	C596.202393,192.400604 594.402161,209.173721 582.518982,223.852264 
	C569.841003,239.512634 552.893860,244.758820 533.757385,239.527191 
	C516.048462,234.685822 504.556671,222.481033 500.854767,204.223038 
	C498.287079,191.559143 500.239929,179.354355 508.170044,168.226135 
z"/>
<path fill="none" opacity="1.000000" stroke="none" 
	d="
M432.842194,386.922607 
	C409.898041,400.452057 382.406128,394.139801 368.524902,372.405060 
	C354.925354,351.111328 360.864960,323.171906 382.645264,308.785583 
	C397.445801,299.009521 413.560272,298.374420 429.167847,306.412201 
	C444.167511,314.136841 452.972351,326.818329 454.138000,344.124390 
	C455.367371,362.375275 447.899963,376.352020 432.842194,386.922607 
z"/>
<path fill="none" opacity="1.000000" stroke="none" 
	d="
M527.480469,326.624756 
	C538.569885,307.804474 554.635376,298.932098 576.052063,301.903381 
	C594.239380,304.426575 606.754822,315.115631 612.951477,332.307281 
	C620.300598,352.696228 612.588013,374.420349 594.443115,386.660339 
	C578.040283,397.725128 554.837158,396.370300 539.551575,383.455200 
	C522.657349,369.180878 518.003601,347.718079 527.480469,326.624756 
z"/>
<path fill="none" opacity="1.000000" stroke="none" 
	d="
M535.356384,527.417542 
	C519.732666,538.715881 499.050903,539.582458 483.383942,529.807922 
	C466.719452,519.411011 458.578827,500.905945 462.020813,481.245789 
	C465.129395,463.489929 480.309692,448.186676 498.522644,444.448395 
	C519.030151,440.239136 540.993286,451.339630 549.898254,470.414398 
	C559.211121,490.362823 553.515259,513.037415 535.356384,527.417542 
z"/>
<path fill="none" opacity="1.000000" stroke="none" 
	d="
M398.823212,31.393578 
	C419.060028,28.380987 435.634521,34.105572 447.180664,50.846970 
	C457.491516,65.797318 458.299286,82.172806 449.991241,98.133995 
	C441.917084,113.645767 428.710236,122.098717 410.789429,123.207855 
	C385.613312,124.766037 365.614471,104.506218 362.926361,84.581650 
	C359.496002,59.155788 373.319733,38.432007 398.823212,31.393578 
z"/>
<path fill="none" opacity="1.000000" stroke="none" 
	d="
M61.796944,162.779205 
	C76.577591,149.914902 93.054428,146.813019 110.827538,153.799088 
	C127.081360,160.187958 136.922806,172.548035 139.480545,189.918442 
	C142.740143,212.055466 130.264999,232.738861 109.662567,240.374496 
	C89.522514,247.838760 66.776794,240.376236 54.684196,222.336990 
	C42.724918,204.496582 44.969421,180.518036 60.109474,164.419876 
	C60.565113,163.935394 61.056416,163.484451 61.796944,162.779205 
z"/>
<path fill="none" opacity="1.000000" stroke="none" 
	d="
M157.948761,532.048157 
	C135.428925,545.040039 109.220993,539.472595 94.817169,518.888123 
	C81.386452,499.694397 84.924271,472.898682 102.923500,457.489563 
	C122.717209,440.544189 152.264435,442.986633 168.986755,462.950562 
	C185.646408,482.839691 182.628937,512.452454 162.257736,528.876038 
	C160.963791,529.919189 159.595016,530.869629 157.948761,532.048157 
z"/>
<path fill="none" opacity="1.000000" stroke="none" 
	d="
M187.606064,60.789154 
	C196.569870,40.030144 214.493835,29.712824 237.526382,31.797573 
	C255.554245,33.429333 272.397461,48.546059 276.297180,67.660263 
	C280.110107,86.349144 274.749786,102.368210 259.522614,114.263168 
	C244.472702,126.019646 227.605515,127.657410 210.736893,119.361176 
	C193.516602,110.891998 184.316071,96.383080 184.763901,76.776947 
	C184.883347,71.547531 186.506683,66.352470 187.606064,60.789154 
z"/>
<path fill="none" opacity="1.000000" stroke="none" 
	d="
M46.991947,386.086670 
	C19.702806,367.075348 20.598307,328.556000 45.066502,310.685852 
	C60.637573,299.313660 77.573654,297.804535 94.448540,306.502472 
	C111.161041,315.116760 119.805511,329.584808 119.406662,348.761780 
	C119.029770,366.882904 110.354301,380.364624 94.675278,388.692657 
	C78.732079,397.160980 62.632832,395.984039 46.991947,386.086670 
z"/>
<path fill="none" opacity="1.000000" stroke="none" 
	d="
M267.050720,377.012909 
	C245.209839,403.300903 203.617767,398.888824 188.894531,367.052490 
	C180.929214,349.828918 182.946228,332.766205 195.388992,317.983887 
	C207.631149,303.439850 223.730789,298.193970 242.066940,302.675995 
	C261.067383,307.320435 273.036560,319.967346 276.676697,339.233185 
	C279.248688,352.845764 276.359650,365.727325 267.050720,377.012909 
z"/>
</svg>